# xmcd
#
# Track frame offsets:
#	150
#	18986
#	43749
#	71158
#	84217
#	102049
#
# Disc length: 1549 seconds
#
# Revision: 2
# Processed by: cddbd v1.5.2PL0 Copyright (c) Steve Scherf et al.
# Submitted via: EasyCDDAExtractor 5.0.6
#
DISCID=41060b06
DTITLE=Machine Translations - Wolf On A String EP
DYEAR=2005
DGENRE=Indie
TTITLE0=Makers I
TTITLE1=A Ghost Rides
TTITLE2=Wolf On A String
TTITLE3=Miss China
TTITLE4=Extress
TTITLE5=Paris Road
EXTD=JM 9/2005
EXTT0=
EXTT1=
EXTT2=
EXTT3=
EXTT4=
EXTT5=
PLAYORDER=
